# xmcd
#
# Track frame offsets: 
#        150
#        18968
#        35566
#        54639
#        87414
#        103689
#        133389
#        152507
#        170485
#        200583
#        222716
#        243489
#
# Disc length: 3527 seconds
#
# Revision: 0
# Processed by: cddbd v1.5.2PL0 Copyright (c) Steve Scherf et al.
# Submitted via: ExactAudioCopy v0.95b4
#
DISCID=af0dc50c
DTITLE=The Foreign Exchange - Dear Friends: An Evening With The Foreig
DTITLE=n Exchange
DYEAR=2011
DGENRE=R&B
TTITLE0=Fight For Love
TTITLE1=All Roads
TTITLE2=Take Off The Blues
TTITLE3=Lose Your Way
TTITLE4=House Of Cards
TTITLE5=Greatest Weapon Of All Time
TTITLE6=Something In The Way She Moves
TTITLE7=Laughing At Your Plans
TTITLE8=Daykeeper
TTITLE9=I Wanna Know
TTITLE10=Steal Away feat. Jeanne Jolly
TTITLE11=All The Kisses feat. Paris and Amber Strother of KING
EXTD=
EXTT0=
EXTT1=
EXTT2=
EXTT3=
EXTT4=
EXTT5=
EXTT6=
EXTT7=
EXTT8=
EXTT9=
EXTT10=
EXTT11=
PLAYORDER=
